<svg width="422" height="317" viewBox="0 0 422 317" fill="none" xmlns="http://www.w3.org/2000/svg">
<path d="M86.9129 137.824C65.5965 137.935 48.2458 138.292 48.2458 138.292C48.2458 138.292 68.8699 107.386 86.8355 118.836C104.801 130.287 125.439 137.889 125.439 137.889C125.439 137.889 108.229 137.713 86.9129 137.824Z" fill="#F2F2F2"/>
<path d="M325.44 147.292C327.863 147.292 329.826 145.053 329.826 142.292C329.826 139.53 327.863 137.292 325.44 137.292C323.018 137.292 321.054 139.53 321.054 142.292C321.054 145.053 323.018 147.292 325.44 147.292Z" fill="#FF6584"/>
<path d="M292.975 221.606L326.297 177.985L327.325 179.006L294.003 222.627L292.975 221.606Z" fill="#3F3D56"/>
<path d="M327.195 186.292C331.07 186.292 334.212 182.71 334.212 178.292C334.212 173.873 331.07 170.292 327.195 170.292C323.319 170.292 320.177 173.873 320.177 178.292C320.177 182.71 323.319 186.292 327.195 186.292Z" fill="#3F3D56"/>
<path d="M306.393 205.292C306.393 205.292 319.866 185.719 302.633 172.292Z" fill="#3F3D56"/>
<path d="M82.9636 239.696C107.655 291.887 160.059 314.292 160.059 314.292C160.059 314.292 172.431 252.078 147.739 199.887C123.048 147.696 70.6435 125.292 70.6435 125.292C70.6435 125.292 58.272 187.505 82.9636 239.696Z" fill="#3F3D56"/>
<path d="M99.6682 222.752C144.239 253.408 161.404 314.3 161.404 314.3C161.404 314.3 106.307 325.488 61.7361 294.832C17.1655 264.175 0 203.284 0 203.284C0 203.284 55.0976 192.095 99.6682 222.752Z" fill="#111B47"/>
<path d="M276.488 223.022C231.675 253.259 214.036 314.042 214.036 314.042C214.036 314.042 269.053 325.799 313.866 295.562C358.679 265.324 376.318 204.542 376.318 204.542C376.318 204.542 321.3 192.784 276.488 223.022Z" fill="#3F3D56"/>
<path d="M201.651 99.3318C196.375 93.8891 195.636 84.7425 199.952 78.2917C199.676 78.5864 199.407 78.8923 199.149 79.2175C194.08 85.6111 194.516 95.4804 200.122 101.261C205.728 107.042 214.381 106.545 219.45 100.152C219.707 99.8265 219.947 99.4902 220.177 99.148C214.983 104.693 206.929 104.773 201.651 99.3318V99.3318Z" fill="#2F2E41"/>
<path d="M189.036 110.292C204.781 110.292 217.545 95.741 217.545 77.7917C217.545 59.8425 204.781 45.2917 189.036 45.2917C173.291 45.2917 160.527 59.8425 160.527 77.7917C160.527 95.741 173.291 110.292 189.036 110.292Z" fill="#2F2E41"/>
<path d="M180.911 119.323L181.766 116.817L166.208 131.657L147.402 143.606C147.402 143.606 137.828 101.977 137.144 101.207C136.46 100.436 124.151 71.1415 118.68 85.0177C113.209 98.8939 129.28 106.988 129.28 106.988C129.28 106.988 129.793 157.675 146.205 157.29C162.618 156.904 182.963 140.137 183.305 138.595C183.647 137.053 180.911 119.323 180.911 119.323Z" fill="#FFB8B8"/>
<path d="M185.527 111.292C194.974 111.292 202.633 102.561 202.633 91.7917C202.633 81.0222 194.974 72.2917 185.527 72.2917C176.08 72.2917 168.422 81.0222 168.422 91.7917C168.422 102.561 176.08 111.292 185.527 111.292Z" fill="#FFB8B8"/>
<path d="M188.491 106.042C188.491 106.042 192.933 112.61 191.567 113.383C190.2 114.155 182.341 114.542 177.557 121.11C172.774 127.678 183.366 144.292 183.366 144.292L223.685 113.769L207.284 107.587C207.284 107.587 196.009 100.633 196.35 93.2917L188.491 106.042Z" fill="#FFB8B8"/>
<path d="M242.984 316.292H197.694C195.129 294.954 193.942 275.4 193.942 275.4C193.942 275.4 193.28 295.069 191.52 316.292H133.334C141.582 253.451 180.683 185.307 180.683 185.307C180.683 185.307 181.024 176.025 182.044 174.477C183.065 172.934 176.265 172.547 173.203 160.947C171.337 153.866 173.015 149.232 174.61 146.701C175.158 145.789 175.832 144.984 176.605 144.317C176.605 144.317 177.286 136.2 176.605 135.039C176.518 134.887 177.189 134.354 178.431 133.543C179.465 132.863 180.895 131.99 182.605 130.986C192.402 125.207 211.367 114.983 217.863 111.5C219.288 110.731 220.116 110.292 220.116 110.292L231.674 114.931C240.85 118.408 240.85 140.452 240.85 140.452L240.331 141.351L226.46 165.251L218.415 179.121C220.456 180.663 216.378 190.333 216.378 190.333C216.378 190.333 222.189 199.83 226.916 214.327C229.588 222.395 231.411 230.795 232.345 239.352C232.941 244.897 233.058 250.495 232.695 256.066C231.435 274.694 237.035 297.334 242.984 316.292Z" fill="#2F2E41"/>
<path d="M231.537 116.726C230.783 116.237 229.881 116.157 229.071 116.506C228.261 116.855 227.626 117.599 227.335 118.538C226.323 121.746 225.298 128.434 225.663 142.339C226.335 167.912 226.671 185.348 226.671 185.348V224.095C226.671 224.095 211.888 261.292 219.952 261.292C228.015 261.292 233.727 231.844 233.727 231.844C233.727 231.844 241.118 187.286 238.767 179.536C238.767 179.536 245.398 126.001 231.537 116.726Z" fill="#FFB8B8"/>
<path d="M183.773 86.2917C191.767 86.2917 198.247 81.143 198.247 74.7917C198.247 68.4405 191.767 63.2917 183.773 63.2917C175.779 63.2917 169.299 68.4405 169.299 74.7917C169.299 81.143 175.779 86.2917 183.773 86.2917Z" fill="#2F2E41"/>
<path d="M207.019 65.2917C214.77 65.2917 221.054 58.1283 221.054 49.2917C221.054 40.4552 214.77 33.2917 207.019 33.2917C199.267 33.2917 192.983 40.4552 192.983 49.2917C192.983 58.1283 199.267 65.2917 207.019 65.2917Z" fill="#2F2E41"/>
<path d="M216.668 60.6764C209.371 60.6752 203.292 54.4219 202.685 46.2917C202.653 46.7233 202.633 47.1586 202.633 47.5994C202.633 56.2661 208.916 63.2917 216.668 63.2917C224.419 63.2917 230.703 56.2661 230.703 47.5994C230.703 47.1586 230.683 46.7234 230.651 46.2917C230.043 54.422 223.965 60.6752 216.668 60.6764V60.6764Z" fill="#2F2E41"/>
<path d="M202.097 88.3101C202.736 88.1361 202.971 86.6451 202.622 84.9799C202.273 83.3147 201.473 82.1059 200.834 82.2799C200.194 82.4539 199.959 83.9449 200.308 85.6101C200.657 87.2753 201.458 88.4841 202.097 88.3101Z" fill="#FFB8B8"/>
<path d="M201.755 88.2917C202.24 88.2917 202.633 87.844 202.633 87.2917C202.633 86.7395 202.24 86.2917 201.755 86.2917C201.271 86.2917 200.878 86.7395 200.878 87.2917C200.878 87.844 201.271 88.2917 201.755 88.2917Z" fill="#F2F2F2"/>
<path fill-rule="evenodd" clip-rule="evenodd" d="M35.0879 147.792C35.0879 151.382 37.6407 154.292 40.7897 154.292C43.9372 154.288 46.4879 151.38 46.4915 147.792C46.4915 144.202 43.9387 141.292 40.7897 141.292C37.6407 141.292 35.0879 144.202 35.0879 147.792ZM36.0382 147.792C36.0382 144.8 38.1655 142.375 40.7897 142.375C43.4126 142.379 45.5382 144.802 45.5412 147.792C45.5412 150.783 43.4139 153.208 40.7897 153.208C38.1655 153.208 36.0382 150.783 36.0382 147.792Z" fill="#3F3D56"/>
<path fill-rule="evenodd" clip-rule="evenodd" d="M266.668 108.292H278.949V94.2917H266.668V108.292ZM278.004 107.215H267.613V95.3687H278.004V107.215Z" fill="#3F3D56"/>
<path d="M382.528 180.824C361.212 180.935 343.861 181.292 343.861 181.292C343.861 181.292 364.485 150.386 382.451 161.836C400.417 173.287 421.055 180.889 421.055 180.889C421.055 180.889 403.845 180.713 382.528 180.824Z" fill="#F2F2F2"/>
<path d="M316.739 75.8243C295.422 75.9355 278.072 76.2917 278.072 76.2917C278.072 76.2917 298.696 45.3859 316.661 56.8363C334.627 68.2867 355.265 75.8893 355.265 75.8893C355.265 75.8893 338.055 75.7132 316.739 75.8243Z" fill="#F2F2F2"/>
<path d="M115.227 89.4247L65.9971 60.4528C62.6353 58.4744 61.3114 53.7516 63.04 49.9041L74.6379 24.0909C74.9783 23.3333 75.5758 22.7692 76.2903 22.5307L115.093 9.58216C118.314 8.50712 121.708 10.5042 122.818 14.1284L135.566 55.7492C136.21 57.8505 136.071 60.1621 135.181 62.1423L124.444 86.0404C123.614 87.8881 122.176 89.2826 120.448 89.9173C118.719 90.5519 116.841 90.3747 115.227 89.4247V89.4247Z" fill="#F2F2F2"/>
<path opacity="0.1" d="M116.971 79.8677L67.3735 55.6267C65.7754 54.6859 67.2739 56.132 68.0957 54.3024L74.3305 25.2917L135.088 61.0591L119.728 82.8026C118.906 84.6321 118.57 80.8085 116.971 79.8677Z" fill="black"/>
<path d="M76.2524 63.3287C72.3522 61.0424 70.6973 55.8481 72.5562 51.727L89.0935 15.0643C90.9524 10.9431 95.6212 9.45574 99.5214 11.7421L130.649 29.989C134.549 32.2754 136.204 37.4696 134.345 41.5908L117.808 78.2535C115.949 82.3746 111.28 83.862 107.38 81.5757L76.2524 63.3287Z" fill="#111B47"/>
<path opacity="0.1" d="M127.194 56.8773L114.437 85.2917L69.2986 58.7057L82.0548 30.2917L99.0151 56.0794L127.194 56.8773V56.8773Z" fill="black"/>
<path d="M98.4668 57.9485L76.5686 24.8939C76.2932 24.4783 75.8493 24.2529 75.3933 24.2973C74.9374 24.3416 74.5336 24.6495 74.3243 25.1122L61.8633 52.6678C61.3598 53.7811 61.2659 55.0763 61.6023 56.2684C61.9386 57.4605 62.6776 58.4519 63.6567 59.0244L117.948 90.7693C118.927 91.3418 120.066 91.4485 121.115 91.0661C122.163 90.6836 123.035 89.8433 123.538 88.7299L135.786 61.6464C136.041 61.0817 136.023 60.4074 135.738 59.8614C135.453 59.3153 134.942 58.9743 134.383 58.9586L98.4668 57.9485Z" fill="#F2F2F2"/>
<path d="M94.2219 14.6238L106.877 22.0422L105.957 24.0824L93.3017 16.6639L94.2219 14.6238Z" fill="#F2F2F2"/>
<path d="M89.8469 21.4563L127.429 43.4868L126.903 44.6526L89.3211 22.6221L89.8469 21.4563Z" fill="#F2F2F2"/>
<path d="M88.0722 25.3909L125.654 47.4214L125.128 48.5872L87.5464 26.5567L88.0722 25.3909Z" fill="#F2F2F2"/>
<path d="M86.2975 29.3254L123.879 51.3559L123.354 52.5217L85.7716 30.4912L86.2975 29.3254Z" fill="#F2F2F2"/>
<path d="M99.1875 12.5735C100.679 9.26776 99.5409 5.21241 96.6464 3.51564C93.7518 1.81887 90.1966 3.1232 88.7055 6.42896C87.2143 9.73471 88.352 13.7901 91.2466 15.4868C94.1411 17.1836 97.6964 15.8793 99.1875 12.5735Z" fill="white"/>
<path fill-rule="evenodd" clip-rule="evenodd" d="M87.621 5.63415C89.3939 1.70574 93.626 0.15869 97.0738 2.17872C100.512 4.20779 101.867 9.0198 100.106 12.9494C98.3335 16.8778 94.1014 18.4248 90.6536 16.4048C87.2059 14.3847 85.8481 9.56256 87.621 5.63415ZM89.3164 6.81337L90.8706 12.3333L99.5977 9.14888L99.1618 7.6006L91.795 10.2935L90.6753 6.31665L89.3164 6.81337Z" fill="#57B894"/>
</svg>
