<svg width="338" height="457" viewBox="0 0 338 457" fill="none" xmlns="http://www.w3.org/2000/svg">
<g clip-path="url(#clip0_34_14552)">
<path d="M336.128 27.0957H1.87227C1.37588 27.0947 0.899976 26.7322 0.548975 26.0877C0.197973 25.4433 0.000542558 24.5695 0 23.6581V3.43754C0.000542558 2.52615 0.197973 1.65237 0.548975 1.00792C0.899976 0.363475 1.37588 0.000994105 1.87227 0H336.128C336.624 0.000996154 337.1 0.363486 337.451 1.00794C337.802 1.65238 337.999 2.52615 338 3.43754V23.6582C337.999 24.5695 337.802 25.4433 337.451 26.0878C337.1 26.7322 336.624 27.0947 336.128 27.0957Z" fill="#E4E4E4"/>
<path d="M10.8656 17.442C12.3336 17.442 13.5237 15.257 13.5237 12.5616C13.5237 9.86615 12.3336 7.68109 10.8656 7.68109C9.39749 7.68109 8.2074 9.86615 8.2074 12.5616C8.2074 15.257 9.39749 17.442 10.8656 17.442Z" fill="white"/>
<path d="M20.955 17.442C22.4231 17.442 23.6132 15.257 23.6132 12.5616C23.6132 9.86615 22.4231 7.68109 20.955 7.68109C19.487 7.68109 18.2969 9.86615 18.2969 12.5616C18.2969 15.257 19.487 17.442 20.955 17.442Z" fill="white"/>
<path d="M31.045 17.442C32.5131 17.442 33.7032 15.257 33.7032 12.5616C33.7032 9.86615 32.5131 7.68109 31.045 7.68109C29.5769 7.68109 28.3868 9.86615 28.3868 12.5616C28.3868 15.257 29.5769 17.442 31.045 17.442Z" fill="white"/>
<path d="M326.242 9.2024H314.624C314.396 9.20148 314.178 9.03459 314.017 8.73836C313.856 8.44213 313.765 8.04074 313.765 7.62227C313.765 7.2038 313.856 6.80242 314.017 6.50619C314.178 6.20996 314.396 6.04307 314.624 6.04215H326.242C326.47 6.04185 326.689 6.20778 326.851 6.5035C327.012 6.79923 327.103 7.20055 327.104 7.61931C327.104 8.03807 327.014 8.44001 326.853 8.73685C326.692 9.03368 326.474 9.20113 326.246 9.2024H326.242Z" fill="white"/>
<path d="M326.242 15.1279H314.624C314.396 15.127 314.178 14.9601 314.017 14.6639C313.856 14.3676 313.765 13.9663 313.765 13.5478C313.765 13.1293 313.856 12.7279 314.017 12.4317C314.178 12.1355 314.396 11.9686 314.624 11.9677H326.242C326.47 11.9674 326.689 12.1333 326.851 12.429C327.012 12.7247 327.103 13.1261 327.104 13.5448C327.104 13.9636 327.014 14.3655 326.853 14.6624C326.692 14.9592 326.474 15.1266 326.246 15.1279H326.242Z" fill="white"/>
<path d="M326.242 21.0534H314.624C314.396 21.0534 314.177 20.8869 314.015 20.5906C313.854 20.2942 313.763 19.8923 313.763 19.4733C313.763 19.0542 313.854 18.6523 314.015 18.3559C314.177 18.0596 314.396 17.8931 314.624 17.8931H326.242C326.47 17.8923 326.69 18.0581 326.851 18.3538C327.013 18.6496 327.104 19.0512 327.104 19.4703C327.105 19.8894 327.015 20.2916 326.854 20.5885C326.692 20.8854 326.474 21.0526 326.245 21.0534H326.242Z" fill="white"/>
<path d="M95.3084 401.815C96.5384 383.657 102.668 365.765 112.1 359.855C108.38 378.546 108.381 399.05 112.102 417.739C113.552 424.937 115.572 432.666 114.209 439.921C113.36 444.435 111.285 447.889 108.966 450.048C106.646 452.208 104.072 453.237 101.529 454.246L101.029 455.006C96.9935 438.274 94.0785 419.974 95.3084 401.815Z" fill="#F0F0F0"/>
<path d="M112.194 360.199C106.701 371.499 103.287 385.69 102.437 400.755C102.222 403.992 102.287 407.271 102.629 410.472C103.017 413.569 103.849 416.42 105.04 418.727C106.127 420.919 107.377 422.93 108.154 425.569C108.541 426.931 108.767 428.427 108.817 429.961C108.867 431.494 108.74 433.029 108.444 434.466C107.758 438.081 106.405 441.027 105.027 443.825C103.497 446.93 101.882 450.111 101.231 454.229C101.153 454.728 100.736 454.474 100.814 453.976C101.946 446.813 105.733 442.744 107.539 436.292C108.382 433.281 108.736 429.786 107.945 426.608C107.255 423.829 105.967 421.753 104.856 419.551C103.676 417.332 102.811 414.616 102.335 411.64C101.905 408.483 101.772 405.213 101.94 401.973C102.254 394.668 103.193 387.498 104.721 380.727C106.441 372.983 108.87 365.835 111.903 359.594C112.091 359.208 112.38 359.815 112.194 360.199Z" fill="white"/>
<path d="M102.555 395.874C101.198 395.269 100.002 393.798 99.1805 391.724C98.3595 389.649 97.9668 387.106 98.0726 384.549C98.0774 384.445 98.1041 384.348 98.147 384.279C98.1899 384.21 98.2457 384.175 98.3026 384.18C98.3595 384.185 98.413 384.231 98.452 384.307C98.491 384.383 98.5123 384.485 98.5114 384.589C98.4105 386.97 98.7764 389.339 99.5431 391.268C100.31 393.197 101.427 394.559 102.693 395.109C102.968 395.229 102.828 395.994 102.555 395.874Z" fill="white"/>
<path d="M104.409 417.749C106.861 415.061 108.67 410.776 109.478 405.747C109.557 405.249 109.974 405.502 109.895 406C109.049 411.23 107.161 415.683 104.607 418.469C104.363 418.734 104.167 418.012 104.409 417.749Z" fill="white"/>
<path d="M106.848 373.746C107.347 374.182 107.897 374.382 108.448 374.331C108.999 374.28 109.535 373.978 110.007 373.452C110.249 373.181 110.445 373.903 110.205 374.172C109.682 374.748 109.09 375.081 108.481 375.14C107.872 375.199 107.264 374.984 106.711 374.512C106.657 374.476 106.612 374.403 106.586 374.308C106.56 374.214 106.555 374.105 106.571 374.003C106.59 373.902 106.629 373.818 106.681 373.77C106.733 373.722 106.793 373.714 106.848 373.746Z" fill="white"/>
<path d="M140.851 392.289C140.703 392.466 140.555 392.643 140.406 392.827C138.42 395.225 136.543 397.916 134.794 400.872C134.656 401.097 134.519 401.328 134.386 401.56C130.213 408.765 126.805 417.33 124.336 426.819C123.355 430.597 122.532 434.506 121.874 438.513C120.966 444.047 120.22 450.18 118.422 454.706C118.238 455.182 118.037 455.637 117.822 456.067H101.573C101.536 456.033 101.499 456.006 101.462 455.972L100.813 456.026C100.839 455.815 100.869 455.598 100.895 455.387C100.909 455.264 100.928 455.142 100.943 455.019C100.954 454.937 100.965 454.856 100.972 454.781C100.976 454.754 100.98 454.726 100.984 454.706C100.991 454.631 101.002 454.563 101.01 454.495C101.173 453.277 101.341 452.058 101.514 450.84C101.514 450.833 101.514 450.833 101.517 450.826C102.787 441.519 104.654 432.521 107.078 424.022C107.152 423.77 107.226 423.511 107.308 423.259C108.431 419.497 109.719 415.909 111.16 412.532C111.952 410.687 112.795 408.918 113.685 407.23C115.988 402.876 118.65 399.215 121.574 396.38C127.401 390.73 134.148 388.566 140.377 392.017C140.536 392.106 140.692 392.194 140.851 392.289Z" fill="#F0F0F0"/>
<path d="M140.815 392.668C132.723 395.618 125.344 403.175 119.725 414.264C118.492 416.612 117.469 419.302 116.692 422.235C115.986 425.137 115.716 428.333 115.91 431.491C116.059 434.443 116.397 437.43 116.153 440.397C116.015 441.912 115.705 443.357 115.242 444.636C114.779 445.915 114.174 447.001 113.467 447.821C111.733 449.948 109.687 450.805 107.67 451.516C105.43 452.305 103.097 453.059 101.228 455.627C101.001 455.939 100.751 455.275 100.977 454.964C104.23 450.495 108.588 451.433 112.146 448.278C113.806 446.806 115.234 444.407 115.646 440.996C116.005 438.013 115.658 434.932 115.493 431.946C115.279 428.87 115.478 425.744 116.074 422.843C116.767 419.847 117.732 417.089 118.929 414.687C121.576 409.202 124.676 404.515 128.116 400.798C132.029 396.516 136.313 393.494 140.781 391.864C141.057 391.763 141.089 392.568 140.815 392.668Z" fill="white"/>
<path d="M121.42 410.498C120.534 408.514 120.062 406.018 120.087 403.453C120.111 400.889 120.632 398.425 121.555 396.5C121.742 396.112 122.08 396.629 121.892 397.017C121.031 398.807 120.546 401.103 120.526 403.49C120.505 405.878 120.95 408.201 121.781 410.039C121.961 410.438 121.599 410.895 121.42 410.498Z" fill="white"/>
<path d="M115.728 430.013C118.566 430.577 121.416 429.156 123.71 426.033C123.937 425.723 124.187 426.387 123.96 426.696C121.57 429.938 118.602 431.405 115.649 430.806C115.368 430.749 115.448 429.956 115.728 430.013Z" fill="white"/>
<path d="M132.104 397.576C132.36 398.475 132.733 399.242 133.19 399.811C133.647 400.379 134.174 400.73 134.723 400.833C135.005 400.884 134.924 401.677 134.644 401.626C134.038 401.508 133.456 401.119 132.951 400.493C132.445 399.867 132.03 399.023 131.743 398.035C131.712 397.946 131.7 397.839 131.71 397.735C131.721 397.63 131.752 397.537 131.799 397.474C131.847 397.414 131.906 397.391 131.963 397.41C132.02 397.429 132.071 397.489 132.104 397.576Z" fill="white"/>
<path d="M109.556 140.989H55.7968C54.1355 140.985 52.5429 139.772 51.3682 137.615C50.1935 135.458 49.5327 132.534 49.5309 129.484V75.7253C49.5327 72.6752 50.1935 69.751 51.3682 67.5943C52.5429 65.4376 54.1356 64.2245 55.7968 64.2212H109.556C111.217 64.2245 112.81 65.4376 113.984 67.5943C115.159 69.751 115.82 72.6752 115.822 75.7252V129.484C115.82 132.534 115.159 135.458 113.984 137.615C112.81 139.772 111.217 140.985 109.556 140.989Z" fill="#E6E6E6"/>
<path d="M191.63 140.989H137.871C136.21 140.985 134.617 139.772 133.443 137.615C132.268 135.458 131.607 132.534 131.605 129.484V75.7253C131.607 72.6752 132.268 69.751 133.443 67.5943C134.617 65.4376 136.21 64.2245 137.871 64.2212H191.63C193.291 64.2245 194.884 65.4376 196.059 67.5943C197.233 69.751 197.894 72.6752 197.896 75.7252V129.484C197.894 132.534 197.233 135.458 196.059 137.615C194.884 139.772 193.291 140.985 191.63 140.989Z" fill="#6C63FF"/>
<path d="M273.705 140.989H219.946C218.284 140.985 216.692 139.772 215.517 137.615C214.342 135.458 213.682 132.534 213.68 129.484V75.7253C213.682 72.6752 214.342 69.751 215.517 67.5943C216.692 65.4376 218.284 64.2245 219.946 64.2212H273.705C275.366 64.2245 276.958 65.4376 278.133 67.5943C279.308 69.751 279.969 72.6752 279.971 75.7252V129.484C279.969 132.534 279.308 135.458 278.133 137.615C276.959 139.772 275.366 140.985 273.705 140.989Z" fill="#E6E6E6"/>
<path d="M109.556 260.769H55.7968C54.1355 260.765 52.5429 259.552 51.3682 257.395C50.1935 255.238 49.5327 252.314 49.5309 249.264V195.505C49.5327 192.455 50.1935 189.531 51.3682 187.374C52.5429 185.218 54.1356 184.005 55.7968 184.001H109.556C111.217 184.005 112.81 185.218 113.984 187.374C115.159 189.531 115.82 192.455 115.822 195.505V249.264C115.82 252.314 115.159 255.238 113.984 257.395C112.81 259.552 111.217 260.765 109.556 260.769Z" fill="#F2F2F2"/>
<path d="M191.63 260.769H137.871C136.21 260.765 134.617 259.552 133.443 257.395C132.268 255.238 131.607 252.314 131.605 249.264V195.505C131.607 192.455 132.268 189.531 133.443 187.374C134.617 185.218 136.21 184.005 137.871 184.001H191.63C193.291 184.005 194.884 185.218 196.059 187.374C197.233 189.531 197.894 192.455 197.896 195.505V249.264C197.894 252.314 197.233 255.238 196.059 257.395C194.884 259.552 193.291 260.765 191.63 260.769Z" fill="#E6E6E6"/>
<path d="M195.426 270.661C200.729 270.661 205.028 262.768 205.028 253.032C205.028 243.296 200.729 235.403 195.426 235.403C190.123 235.403 185.824 243.296 185.824 253.032C185.824 262.768 190.123 270.661 195.426 270.661Z" fill="#6C63FF"/>
<path d="M199.413 251.552H196.149V245.558C196.149 245.373 196.129 245.189 196.09 245.018C196.052 244.847 195.995 244.692 195.924 244.561C195.852 244.43 195.768 244.326 195.674 244.255C195.581 244.184 195.481 244.148 195.38 244.148C195.28 244.148 195.18 244.184 195.086 244.255C194.993 244.326 194.909 244.43 194.837 244.561C194.766 244.692 194.709 244.847 194.671 245.018C194.632 245.189 194.612 245.373 194.612 245.558V251.552H191.348C191.247 251.552 191.147 251.588 191.054 251.659C190.961 251.73 190.876 251.834 190.805 251.965C190.733 252.096 190.677 252.251 190.638 252.422C190.599 252.594 190.58 252.777 190.58 252.962C190.58 253.147 190.599 253.331 190.638 253.502C190.677 253.673 190.733 253.829 190.805 253.959C190.876 254.09 190.961 254.194 191.054 254.265C191.147 254.336 191.247 254.373 191.348 254.373H194.612V260.366C194.612 260.552 194.632 260.735 194.671 260.906C194.709 261.077 194.766 261.233 194.837 261.364C194.909 261.495 194.993 261.598 195.086 261.669C195.18 261.74 195.28 261.777 195.38 261.777C195.584 261.777 195.78 261.628 195.924 261.364C196.068 261.099 196.149 260.74 196.149 260.366V254.373H199.413C199.514 254.373 199.614 254.336 199.707 254.265C199.8 254.194 199.885 254.09 199.956 253.959C200.028 253.828 200.084 253.673 200.123 253.502C200.161 253.331 200.181 253.147 200.181 252.962C200.181 252.777 200.161 252.594 200.123 252.422C200.084 252.251 200.028 252.096 199.956 251.965C199.885 251.834 199.8 251.73 199.707 251.659C199.614 251.588 199.514 251.552 199.413 251.552Z" fill="white"/>
<path d="M278.763 153.972C284.066 153.972 288.365 146.079 288.365 136.343C288.365 126.607 284.066 118.714 278.763 118.714C273.46 118.714 269.162 126.607 269.162 136.343C269.162 146.079 273.46 153.972 278.763 153.972Z" fill="#6C63FF"/>
<path d="M282.75 134.863H279.486V128.869C279.486 128.684 279.466 128.5 279.427 128.329C279.389 128.158 279.332 128.003 279.261 127.872C279.189 127.741 279.105 127.637 279.012 127.566C278.918 127.495 278.818 127.459 278.718 127.459C278.617 127.459 278.517 127.495 278.424 127.566C278.33 127.637 278.246 127.741 278.174 127.872C278.103 128.003 278.046 128.158 278.008 128.329C277.969 128.5 277.949 128.684 277.949 128.869V134.863H274.685C274.584 134.863 274.484 134.899 274.391 134.97C274.298 135.041 274.213 135.145 274.142 135.276C274.07 135.407 274.014 135.562 273.975 135.733C273.937 135.904 273.917 136.088 273.917 136.273C273.917 136.458 273.937 136.642 273.975 136.813C274.014 136.984 274.07 137.139 274.142 137.27C274.213 137.401 274.298 137.505 274.391 137.576C274.484 137.647 274.584 137.684 274.685 137.684H277.949V143.677C277.949 143.862 277.969 144.046 278.008 144.217C278.047 144.388 278.103 144.544 278.174 144.675C278.246 144.806 278.33 144.909 278.424 144.98C278.517 145.051 278.617 145.088 278.718 145.088C278.921 145.088 279.117 144.939 279.261 144.675C279.405 144.41 279.486 144.051 279.486 143.677V137.683H282.75C282.851 137.683 282.951 137.647 283.044 137.576C283.137 137.505 283.222 137.401 283.293 137.27C283.365 137.139 283.421 136.984 283.46 136.813C283.499 136.642 283.518 136.458 283.518 136.273C283.518 136.088 283.499 135.904 283.46 135.733C283.421 135.562 283.365 135.407 283.293 135.276C283.222 135.145 283.137 135.041 283.044 134.97C282.951 134.899 282.851 134.863 282.75 134.863Z" fill="white"/>
<path d="M113.352 152.426C118.654 152.426 122.953 144.534 122.953 134.798C122.953 125.061 118.654 117.169 113.352 117.169C108.049 117.169 103.75 125.061 103.75 134.798C103.75 144.534 108.049 152.426 113.352 152.426Z" fill="#6C63FF"/>
<path d="M117.339 133.317H114.074V127.323C114.074 127.138 114.054 126.955 114.016 126.784C113.977 126.613 113.92 126.457 113.849 126.326C113.778 126.195 113.693 126.091 113.6 126.02C113.507 125.95 113.407 125.913 113.306 125.913C113.205 125.913 113.105 125.95 113.012 126.02C112.919 126.091 112.834 126.195 112.763 126.326C112.691 126.457 112.635 126.613 112.596 126.784C112.558 126.955 112.538 127.138 112.538 127.323V133.317H109.273C109.172 133.317 109.073 133.354 108.979 133.425C108.886 133.495 108.801 133.599 108.73 133.73C108.659 133.861 108.602 134.017 108.564 134.188C108.525 134.359 108.505 134.542 108.505 134.728C108.505 135.102 108.586 135.46 108.73 135.725C108.874 135.989 109.07 136.138 109.273 136.138H112.538V142.132C112.538 142.317 112.558 142.5 112.596 142.671C112.635 142.843 112.691 142.998 112.763 143.129C112.834 143.26 112.919 143.364 113.012 143.435C113.105 143.506 113.205 143.542 113.306 143.542C113.407 143.542 113.507 143.506 113.6 143.435C113.693 143.364 113.778 143.26 113.849 143.129C113.92 142.998 113.977 142.843 114.016 142.671C114.054 142.5 114.074 142.317 114.074 142.132V136.138H117.339C117.44 136.138 117.539 136.101 117.633 136.031C117.726 135.96 117.811 135.856 117.882 135.725C117.953 135.594 118.01 135.438 118.048 135.267C118.087 135.096 118.107 134.913 118.107 134.728C118.107 134.353 118.026 133.995 117.882 133.73C117.738 133.466 117.542 133.317 117.339 133.317Z" fill="white"/>
<path d="M185.236 110.445C185.412 111.418 185.468 112.449 185.403 113.467C185.338 114.484 185.151 115.463 184.858 116.334C184.564 117.206 184.17 117.948 183.703 118.509C183.236 119.07 182.707 119.437 182.155 119.583L177.715 175.223L170.433 168.692L177.758 113.153C177.686 111.433 177.96 109.724 178.529 108.35C179.097 106.977 179.92 106.034 180.842 105.7C181.764 105.366 182.72 105.665 183.53 106.539C184.34 107.414 184.947 108.804 185.236 110.445Z" fill="#9E616A"/>
<path d="M132.209 288.647C132.534 287.813 132.754 286.858 132.856 285.851C132.957 284.843 132.937 283.807 132.797 282.815C132.657 281.824 132.4 280.9 132.045 280.11C131.689 279.321 131.244 278.683 130.74 278.244L133.735 219.06L127.461 224.964L125.503 281.995C125.157 283.599 125.143 285.38 125.465 287.001C125.786 288.622 126.42 289.97 127.247 290.79C128.074 291.61 129.035 291.845 129.95 291.45C130.865 291.055 131.669 290.057 132.209 288.647Z" fill="#9E616A"/>
<path d="M136.495 258.713L163.416 256.812L164.969 205.483H133.907L136.495 258.713Z" fill="#9E616A"/>
<path d="M131.499 439.983L136.099 439.983L138.287 407.405H131.498L131.499 439.983Z" fill="#9E616A"/>
<path d="M130.358 435.817L137.63 435.02V440.74L144.544 449.507C144.885 449.94 145.142 450.562 145.278 451.283C145.413 452.003 145.419 452.784 145.296 453.511C145.172 454.239 144.925 454.874 144.591 455.326C144.257 455.778 143.853 456.021 143.438 456.021H134.78L133.288 450.363L132.705 456.021H129.441L130.358 435.817Z" fill="#2F2E41"/>
<path d="M151.96 439.983L156.56 439.983L158.749 407.405H151.959L151.96 439.983Z" fill="#9E616A"/>
<path d="M136.122 246.663C136.122 246.663 128.067 258.603 132.433 301.243C131.768 301.389 132.521 303.795 132.521 303.795L133.151 338.539L133.638 342.521L132.019 348.946L132.687 355.927L130.629 419.289L138.23 421.093L145.503 355.296L146.888 347.899L148.277 341.415L147.528 334.5L148.142 323.768L152.335 287.58L153.362 350.343L151.929 356.335L152.726 362.912L150.951 366.404L150.249 425.127L158.353 425.823L165.058 366.626L164.538 359.072L165.43 353.486V340.439L166.958 334.282L170.289 300.707C170.289 300.707 171.294 274.465 163.962 243.584L136.122 246.663Z" fill="#2F2E41"/>
<path d="M139.404 162.824C139.404 162.824 129.231 166.519 127.478 182.449C125.725 198.379 124.597 234.428 124.597 234.428L124.981 239.448L134.822 243.638L141.103 193.127L139.404 162.824Z" fill="#3F3D56"/>
<path d="M162.622 168.201C162.622 168.201 163.654 165.548 169.429 165.139C169.666 165.122 169.372 164.256 169.372 164.256L172.149 139.332L181.405 148.741L179.843 174.871L164.633 206.632L162.622 168.201Z" fill="#3F3D56"/>
<path d="M156.853 242.505C152.496 242.505 145.937 241.622 136.063 238.931C135.427 238.755 134.838 238.21 134.383 237.376C133.927 236.542 133.629 235.462 133.532 234.295C133.209 233.67 132.999 232.878 132.931 232.026C132.862 231.174 132.938 230.304 133.148 229.535L133.157 229.502L132.933 229.017C132.587 228.271 132.384 227.337 132.355 226.359C132.325 225.38 132.471 224.411 132.771 223.599L129.713 183.434C129.402 179.446 129.877 175.385 131.052 171.982C132.227 168.579 134.025 166.058 136.122 164.871L137.251 164.226L141.52 153.974L141.604 153.976L155.309 154.311L159.756 164.68L166.945 167.792L166.964 167.993L168.633 185.701C169.501 194.91 167.51 198.533 164.969 206.632L165.715 229.378L166.053 230.507C166.241 231.132 166.304 231.858 166.231 232.559C166.158 233.26 165.954 233.892 165.654 234.346C165.881 235.536 165.897 236.827 165.698 238.034L165.523 239.101C165.523 239.132 165.476 239.565 165.096 240.095C164.412 241.049 162.447 242.505 156.853 242.505Z" fill="#3F3D56"/>
<path d="M150.819 435.817L158.091 435.02V440.74L165.005 449.507C165.346 449.94 165.604 450.562 165.739 451.282C165.874 452.003 165.881 452.784 165.757 453.511C165.634 454.239 165.387 454.874 165.052 455.326C164.718 455.778 164.314 456.021 163.899 456.021H155.241L153.749 450.363L153.166 456.021H149.902L150.819 435.817Z" fill="#2F2E41"/>
<path d="M158.457 131.633C159.407 120.879 155.429 110.746 149.572 109.001C143.715 107.256 138.197 114.559 137.246 125.313C136.296 136.067 140.273 146.199 146.13 147.944C151.988 149.69 157.506 142.386 158.457 131.633Z" fill="#9E616A"/>
<path d="M154.134 109.198C150.196 104.225 146.728 103.468 143.88 104.878C143.511 103.829 142.993 102.985 142.382 102.436C140.16 92.1581 133.399 85.9857 127.597 88.9862C121.758 92.0061 117.728 103.883 118.827 114.838C119.508 121.628 121.836 127.508 122.772 134.195C124.584 147.14 120.163 161.969 113.247 166.142C119.795 168.556 127.003 161.212 129.352 149.733C130.493 144.157 130.562 138.07 130.707 132.12C130.745 128.013 131.019 123.925 131.525 119.923C131.776 118.128 132.13 116.387 132.582 114.73C133.567 111.087 135.202 108.175 137.214 106.478C137.034 107.502 136.989 108.589 137.083 109.651C137.177 110.713 137.407 111.719 137.754 112.585C136.218 116.117 135.382 119.937 135.382 122.224C132.192 132.929 136.754 142.124 142.585 147.981C144.91 150.33 147.596 151.189 150.217 150.424L150.461 148.512L150.791 150.234L151.894 156.008C153.167 157.138 154.429 158.378 155.68 159.725C155.204 155.629 154.82 151.539 154.555 147.541C154.189 142.099 155.466 133.998 156.387 129.071C156.958 126.035 157.251 122.846 157.254 119.633V119.493L158.151 124.781L161.415 122.224C160.808 115.829 161.415 108.568 154.134 109.198Z" fill="#2F2E41"/>
<path d="M288.385 457H49.6146C49.4821 456.999 49.3553 456.901 49.2619 456.729C49.1684 456.556 49.116 456.323 49.116 456.08C49.116 455.837 49.1684 455.603 49.2619 455.431C49.3553 455.258 49.4821 455.161 49.6146 455.16H288.385C288.518 455.161 288.645 455.258 288.738 455.431C288.832 455.603 288.884 455.837 288.884 456.08C288.884 456.323 288.832 456.556 288.738 456.729C288.645 456.901 288.518 456.999 288.385 457Z" fill="#CCCCCC"/>
<path d="M112.254 272.978C117.557 272.978 121.856 265.085 121.856 255.349C121.856 245.613 117.557 237.72 112.254 237.72C106.951 237.72 102.653 245.613 102.653 255.349C102.653 265.085 106.951 272.978 112.254 272.978Z" fill="#E6E6E6"/>
<path d="M256.72 245.217H223.043C222.002 245.215 221.004 244.455 220.268 243.104C219.533 241.753 219.119 239.921 219.117 238.01V204.333C219.119 202.423 219.533 200.591 220.268 199.24C221.004 197.889 222.002 197.129 223.043 197.127H256.72C257.76 197.129 258.758 197.889 259.494 199.24C260.23 200.591 260.644 202.423 260.645 204.333V238.01C260.644 239.921 260.23 241.753 259.494 243.104C258.758 244.455 257.76 245.215 256.72 245.217Z" fill="#F2F2F2"/>
<path d="M257.216 231.538C260.032 231.538 262.315 227.346 262.315 222.176C262.315 217.006 260.032 212.814 257.216 212.814C254.4 212.814 252.117 217.006 252.117 222.176C252.117 227.346 254.4 231.538 257.216 231.538Z" fill="#6C63FF"/>
<path d="M259.333 221.39H257.6V218.207C257.6 218.109 257.589 218.011 257.568 217.92C257.548 217.829 257.518 217.747 257.48 217.677C257.442 217.608 257.397 217.553 257.348 217.515C257.298 217.477 257.245 217.458 257.192 217.458C257.083 217.458 256.98 217.537 256.903 217.677C256.827 217.818 256.784 218.008 256.784 218.207V221.39H255.05C254.942 221.39 254.838 221.469 254.762 221.609C254.685 221.75 254.642 221.94 254.642 222.139C254.642 222.237 254.653 222.335 254.673 222.426C254.694 222.516 254.724 222.599 254.762 222.669C254.799 222.738 254.844 222.793 254.894 222.831C254.943 222.869 254.996 222.888 255.05 222.888H256.784V226.071C256.784 226.169 256.794 226.267 256.815 226.358C256.835 226.448 256.865 226.531 256.903 226.601C256.941 226.67 256.986 226.725 257.036 226.763C257.085 226.801 257.138 226.82 257.192 226.82C257.3 226.82 257.404 226.741 257.48 226.601C257.557 226.46 257.6 226.27 257.6 226.071V222.888H259.333C259.441 222.888 259.545 222.809 259.622 222.669C259.698 222.528 259.741 222.338 259.741 222.139C259.741 222.041 259.731 221.943 259.71 221.852C259.69 221.761 259.66 221.679 259.622 221.609C259.584 221.54 259.539 221.485 259.489 221.447C259.44 221.409 259.387 221.39 259.333 221.39Z" fill="white"/>
<path d="M270.44 235.66H242.687C241.509 235.658 240.38 234.798 239.547 233.268C238.714 231.739 238.245 229.666 238.244 227.503V197.087C238.245 196.689 238.331 196.307 238.485 196.026C238.638 195.745 238.846 195.587 239.063 195.587C239.279 195.587 239.487 195.745 239.641 196.026C239.794 196.307 239.881 196.689 239.881 197.087V205.233L272.118 210.613C272.762 210.634 273.375 211.118 273.827 211.961C274.279 212.804 274.532 213.939 274.533 215.121C274.533 215.214 274.528 215.307 274.519 215.398L272.894 231.305C272.872 232.473 272.603 233.58 272.146 234.392C271.688 235.204 271.077 235.659 270.44 235.66ZM239.881 208.251V227.503C239.882 228.869 240.178 230.178 240.704 231.144C241.23 232.11 241.943 232.653 242.687 232.655H270.44C270.657 232.654 270.865 232.496 271.019 232.214C271.172 231.932 271.258 231.55 271.259 231.152C271.259 231.059 271.263 230.966 271.273 230.875L272.893 215.005C272.877 214.628 272.784 214.276 272.633 214.019C272.482 213.762 272.283 213.619 272.077 213.618C272.052 213.618 272.028 213.616 272.003 213.612L239.881 208.251Z" fill="#6C63FF"/>
<path d="M235.312 249.687C236.066 249.687 236.677 248.566 236.677 247.182C236.677 245.799 236.066 244.677 235.312 244.677C234.559 244.677 233.948 245.799 233.948 247.182C233.948 248.566 234.559 249.687 235.312 249.687Z" fill="#6C63FF"/>
<path d="M269.349 249.687C270.102 249.687 270.713 248.566 270.713 247.182C270.713 245.799 270.102 244.677 269.349 244.677C268.595 244.677 267.984 245.799 267.984 247.182C267.984 248.566 268.595 249.687 269.349 249.687Z" fill="#6C63FF"/>
<path d="M270.713 244.677H234.221C234.004 244.677 233.796 244.519 233.642 244.237C233.489 243.955 233.403 243.573 233.403 243.175C233.403 242.776 233.489 242.394 233.642 242.112C233.796 241.83 234.004 241.672 234.221 241.672H270.713C270.93 241.672 271.138 241.83 271.292 242.112C271.445 242.394 271.531 242.776 271.531 243.175C271.531 243.573 271.445 243.955 271.292 244.237C271.138 244.519 270.93 244.677 270.713 244.677Z" fill="#6C63FF"/>
<path d="M241.245 198.089H234.151C233.935 198.088 233.727 197.929 233.574 197.647C233.421 197.366 233.335 196.984 233.335 196.586C233.335 196.188 233.421 195.806 233.574 195.524C233.727 195.243 233.935 195.084 234.151 195.083H241.245C241.462 195.084 241.67 195.243 241.823 195.524C241.976 195.806 242.062 196.188 242.062 196.586C242.062 196.984 241.976 197.366 241.823 197.647C241.67 197.929 241.462 198.088 241.245 198.089Z" fill="#6C63FF"/>
<path d="M246.936 243.912C246.741 243.913 246.552 243.784 246.403 243.549L241.023 235.061C240.941 234.932 240.874 234.775 240.826 234.599C240.777 234.423 240.747 234.231 240.739 234.034C240.731 233.837 240.744 233.639 240.777 233.451C240.811 233.263 240.864 233.089 240.935 232.939C241.005 232.789 241.09 232.666 241.186 232.577C241.282 232.488 241.387 232.435 241.494 232.42C241.602 232.405 241.71 232.43 241.812 232.491C241.914 232.553 242.009 232.652 242.09 232.781L247.47 241.27C247.597 241.47 247.687 241.736 247.729 242.033C247.771 242.331 247.762 242.644 247.704 242.932C247.646 243.22 247.541 243.468 247.404 243.643C247.267 243.819 247.104 243.912 246.936 243.912Z" fill="#6C63FF"/>
<path d="M248.07 234.737C247.963 234.737 247.856 234.698 247.757 234.623C247.657 234.547 247.567 234.437 247.491 234.297C247.415 234.157 247.355 233.992 247.314 233.809C247.273 233.627 247.251 233.432 247.251 233.234V209.11C247.251 208.711 247.338 208.329 247.491 208.047C247.645 207.765 247.853 207.607 248.07 207.607C248.287 207.607 248.495 207.765 248.649 208.047C248.802 208.329 248.889 208.711 248.889 209.11V233.234C248.889 233.432 248.867 233.627 248.826 233.809C248.785 233.992 248.725 234.157 248.649 234.297C248.573 234.436 248.483 234.547 248.383 234.623C248.284 234.698 248.177 234.737 248.07 234.737Z" fill="#6C63FF"/>
<path d="M265.361 234.737C265.254 234.737 265.147 234.698 265.048 234.623C264.948 234.547 264.858 234.437 264.782 234.297C264.706 234.157 264.646 233.992 264.605 233.81C264.564 233.627 264.542 233.432 264.542 233.234V211.114C264.543 210.716 264.629 210.334 264.783 210.053C264.936 209.772 265.144 209.614 265.361 209.614C265.578 209.614 265.786 209.772 265.939 210.053C266.093 210.334 266.179 210.716 266.18 211.114V233.234C266.18 233.432 266.158 233.627 266.117 233.809C266.076 233.992 266.016 234.157 265.94 234.297C265.864 234.436 265.774 234.547 265.674 234.623C265.575 234.698 265.469 234.737 265.361 234.737Z" fill="#6C63FF"/>
</g>
<defs>
<clipPath id="clip0_34_14552">
<rect width="338" height="457" fill="white"/>
</clipPath>
</defs>
</svg>
